# xmcd
# 
# Track frame offsets:
#   150
#   16363
#   34305
#   51071
#   67335
#   86931
#   108257
#   127215
#   142185
#   162993
#   181982
#   197748
#   212202
#   231144
#   246817
# 
# Disc length: 3499 seconds
# 
# Revision: 0
# Processed by: cddbd v1.5.1PL2 Copyright (c) Steve Scherf et al.
# Submitted via: Synapstar 1.0 
# 
DISCID=e70da90f
DTITLE=Various Artist - mm Vol.22
DYEAR=1900
DGENRE=Country
TTITLE0=Gath Brooks/Trisha Yearwood - Squeeze Me In
TTITLE1=Kenny Chesney - Young
TTITLE2=Reba - Sweet Music Man
TTITLE3=Tommy Shane Steiner - What If She's An Angel
TTITLE4=Mark Wills/Jamie O'Neal - I'm Not Gonna Do Anything Without You
TTITLE5=Travis Tritt - Modern Day Bonnie Clyde
TTITLE6=Gary Allan - The One
TTITLE7=Trick Pony - Just What I Do
TTITLE8=Willie Nelson/Lee Ann Womack - Mendocino County Line
TTITLE9=Lonestar - Not A Day Goes By 
TTITLE10=Mark Chesnutt - She Was
TTITLE11=Andy Griggs - Tonight I Wanna Be Your Man
TTITLE12=Alan Jackson - Drive(for daddy gene)
TTITLE13=Alison Krauss and Union Station - Let Me Touch You For Awhile
TTITLE14=Toby Keith - My List
EXTD=MediaType: Karaoke CD+G Producer: Music Maestro
EXTT0=
EXTT1=
EXTT2=
EXTT3=
EXTT4=
EXTT5=
EXTT6=
EXTT7=
EXTT8=
EXTT9=
EXTT10=
EXTT11=
EXTT12=
EXTT13=
EXTT14=
PLAYORDER=
